<svg style="position: relative; top:5px; left: -5;" width="42" height="42" viewBox="0 0 42 42" fill="none"
    xmlns="http://www.w3.org/2000/svg">
    <path
        d="M0.144356 13.5155C0.144356 12.9314 0.620136 12.4556 1.2042 12.4556H23.9006C24.4814 12.4556 24.9604 12.9314 24.9604 13.5155V30.112H0.144356V13.5155Z"
        fill="#C7C7C7" />
    <path d="M17.302 13.44H16.1798V29.0095H17.302V13.44Z" fill="black" />
    <path d="M9.14478 13.44H8.02259V29.0095H9.14478V13.44Z" fill="black" />
    <path
        d="M24.9606 30.112V15.0019H30.7159C31.7527 15.0019 33.2654 15.7894 33.4984 17.594C33.8429 20.2453 34.6304 24.2058 34.6304 24.2058L39.8345 26.1548C39.8345 26.1548 41.8557 26.8078 41.8557 29.295V34.2661C41.8557 34.9387 41.0288 35.8575 40.4054 35.8575H1.20431C0.620252 35.8575 0.144472 35.3817 0.144472 34.7976V30.112H24.9606Z"
        fill="#0E839E" />
    <path
        d="M26.2534 23.0212C26.2534 23.6053 26.7291 24.0811 27.3132 24.0811H31.4607C32.0448 24.0811 32.4516 23.6086 32.3696 23.0344L31.6379 17.9812C31.5559 17.4037 31.0079 16.9312 30.4271 16.9312H27.3132C26.7324 16.9312 26.2534 17.4103 26.2534 17.9911V23.0212V23.0212Z"
        fill="white" />
    <path
        d="M29.6821 35.8608C29.6821 37.8984 31.3359 39.5489 33.3735 39.5489C35.4112 39.5489 37.0649 37.8984 37.0649 35.8608C37.0649 33.8199 35.4112 32.1727 33.3735 32.1727C31.3359 32.1727 29.6821 33.8199 29.6821 35.8608Z"
        fill="black" />
    <path
        d="M7.44849 35.8608C7.44849 37.8984 9.10224 39.5489 11.1399 39.5489C13.1775 39.5489 14.8313 37.8984 14.8313 35.8608C14.8313 33.8199 13.1775 32.1727 11.1399 32.1727C9.10224 32.1727 7.44849 33.8199 7.44849 35.8608Z"
        fill="black" />
</svg>